<svg xmlns="http://www.w3.org/2000/svg" viewBox="0 0 520 520" fill="none">
  <g stroke="#405c69" stroke-width="2.2" opacity=".37">
    <circle cx="260" cy="260" r="188"/>
    <ellipse cx="260" cy="260" rx="82" ry="188"/>
    <ellipse cx="260" cy="260" rx="151" ry="188"/>
    <path d="M81 226c49-31 108-46 179-46s130 15 179 46M75 260h370M81 294c49 31 108 46 179 46s130-15 179-46"/>
    <path d="M116 147l45 19m244 190-45 19M112 360l43-22m210-217 43 22" stroke-width="1.5"/>
  </g>
  <g fill="#405c69" opacity=".48" font-family="Georgia,serif" font-weight="700" text-anchor="middle">
    <text x="260" y="96" font-size="34">A</text>
    <text x="260" y="438" font-size="30">文</text>
    <text x="78" y="270" font-size="25">Ω</text>
    <text x="442" y="270" font-size="25">Ж</text>
    <text x="151" y="149" font-size="23">?</text>
    <text x="369" y="149" font-size="23">∑</text>
    <text x="151" y="385" font-size="23">λ</text>
    <text x="369" y="385" font-size="23">ñ</text>
  </g>
  <g fill="#6f8a88" opacity=".28">
    <circle cx="115" cy="201" r="3"/><circle cx="406" cy="201" r="3"/>
    <circle cx="115" cy="319" r="3"/><circle cx="406" cy="319" r="3"/>
    <circle cx="205" cy="79" r="3"/><circle cx="315" cy="79" r="3"/>
    <circle cx="205" cy="441" r="3"/><circle cx="315" cy="441" r="3"/>
  </g>
</svg>
